<svg xmlns="http://www.w3.org/2000/svg" xmlns:xlink="http://www.w3.org/1999/xlink" width="981.038" height="98.719" viewBox="0 0 981.038 98.719"><defs><style>.a{opacity:0.71;}.b{opacity:0.2;fill:url(#a);}.c{fill:none;stroke:#7685bd;stroke-linecap:round;stroke-miterlimit:10;}.d{filter:url(#e);}.e{filter:url(#b);}</style><linearGradient id="a" x1="0.014" y1="0.906" x2="0.014" y2="-0.879" gradientUnits="objectBoundingBox"><stop offset="0" stop-color="#518ef7" stop-opacity="0"/><stop offset="1" stop-color="#518ef7"/></linearGradient><filter id="b" x="0" y="0" width="497.038" height="70.102" filterUnits="userSpaceOnUse"><feOffset dy="2" input="SourceAlpha"/><feGaussianBlur stdDeviation="2" result="c"/><feFlood flood-opacity="0.2"/><feComposite operator="in" in2="c"/><feComposite in="SourceGraphic"/></filter><filter id="e" x="484.162" y="0" width="496.876" height="70.102" filterUnits="userSpaceOnUse"><feOffset dy="2" input="SourceAlpha"/><feGaussianBlur stdDeviation="2" result="f"/><feFlood flood-opacity="0.2"/><feComposite operator="in" in2="f"/><feComposite in="SourceGraphic"/></filter></defs><g class="a" transform="translate(-448.174 -133.5)"><g transform="translate(454.674 138)"><path class="b" d="M0,28.551c13.056,0,16.135-14.276,32.269-14.276S48.4,35.689,64.538,35.689,80.673,14.276,96.808,14.276s16.135,28.551,32.269,28.551S145.211,57.1,161.346,57.1s16.135-27.124,32.269-27.124,16.135,12.848,32.269,12.848,16.135-14.276,32.269-14.276S274.288,0,290.423,0s16.135,28.551,32.269,28.551S338.827,5.71,354.961,5.71,371.1,34.261,387.231,34.261s16.135,8.565,32.269,8.565,16.135-5.71,32.269-5.71,16.135-8.565,32.269-8.565V94.219H0Z" transform="translate(0)"/><g class="e" transform="matrix(1, 0, 0, 1, -6.5, -4.5)"><path class="c" d="M0,28.551c13.056,0,16.135-14.276,32.269-14.276S48.4,35.689,64.538,35.689,80.673,14.276,96.808,14.276s16.135,28.551,32.269,28.551S145.211,57.1,161.346,57.1s16.135-27.124,32.269-27.124,16.135,12.848,32.269,12.848,16.135-14.276,32.269-14.276S274.288,0,290.423,0s16.135,28.551,32.269,28.551S338.827,5.71,354.961,5.71,371.1,34.261,387.231,34.261s16.135,8.565,32.269,8.565,16.135-5.71,32.269-5.71S467.9,22.841,484.038,22.841" transform="translate(6.5 4.5)"/></g></g><g transform="translate(938.674 138)"><path class="b" d="M0,28.551c13.056,0,16.135-14.276,32.269-14.276S48.4,35.689,64.538,35.689,80.673,14.276,96.808,14.276s16.135,28.551,32.269,28.551S145.211,57.1,161.346,57.1s16.135-27.124,32.269-27.124,16.135,12.848,32.269,12.848,16.135-14.276,32.269-14.276S274.288,0,290.423,0s16.135,28.551,32.269,28.551S338.827,5.71,354.961,5.71,371.1,34.261,387.231,34.261s16.135,8.565,32.269,8.565,16.135-5.71,32.269-5.71,16.135-8.565,32.269-8.565V94.219H0Z" transform="translate(0)"/><g class="d" transform="matrix(1, 0, 0, 1, -490.5, -4.5)"><path class="c" d="M.162,22.8c13.056,0,15.972-8.525,32.107-8.525S48.4,35.689,64.538,35.689,80.673,14.276,96.808,14.276s16.135,28.551,32.269,28.551S145.211,57.1,161.346,57.1s16.135-27.124,32.269-27.124,16.135,12.848,32.269,12.848,16.135-14.276,32.269-14.276S274.288,0,290.423,0s16.135,28.551,32.269,28.551S338.827,5.71,354.961,5.71,371.1,34.261,387.231,34.261s16.135,8.565,32.269,8.565,16.135-5.71,32.269-5.71S467.9,22.841,484.038,22.841" transform="translate(490.5 4.5)"/></g></g></g></svg>