<svg xmlns="http://www.w3.org/2000/svg" width="54.857" height="54.857" viewBox="0 0 54.857 54.857"><defs><style>.a{fill:#8198ee;}.b{fill:#fff;}</style></defs><g transform="translate(-4.344 4.344) rotate(-9)"><rect class="a" width="39.273" height="39.274" rx="8" transform="translate(0 27.771) rotate(-45)"/><g transform="translate(10.509 9.738)"><path class="b" d="M10.322,20.643A10.321,10.321,0,1,1,20.643,10.321,10.333,10.333,0,0,1,10.322,20.643Zm0-16.514a6.193,6.193,0,1,0,6.193,6.193A6.2,6.2,0,0,0,10.322,4.129Z" transform="translate(7.396 8.476)"/><path class="b" d="M13.589,12.445,7.131,4.44l5.449.605.605-3.9L.942,0,0,11.974l3.364.471L4.373,6.323,10.7,15.2Z" transform="translate(0 0)"/><g transform="translate(12.486 25.455)"><rect class="b" width="3.78" height="19.068" rx="1" transform="translate(4.246 0)"/><rect class="b" width="12.104" height="3.631" rx="1" transform="translate(0 9.683)"/></g></g></g></svg>