<svg xmlns="http://www.w3.org/2000/svg" width="25.275" height="25.274" viewBox="0 0 25.275 25.274"><defs><style>.a{fill:#d3d3d3;}</style></defs><g transform="translate(0 -0.008)"><path class="a" d="M7.429,19A11.56,11.56,0,0,0,16.285.008,12.947,12.947,0,1,1,0,16.293,11.512,11.512,0,0,0,7.429,19Z"/><path class="a" d="M60.949,42.776A12.935,12.935,0,0,1,42.784,60.941,12.937,12.937,0,1,0,60.949,42.776Z" transform="translate(-40.62 -40.605)"/><g transform="translate(2.163 4.198)"><path class="a" d="M47.085,99.944l1.334,2.7,2.983.433-2.158,2.1.509,2.971-2.667-1.4-2.668,1.4.509-2.971-2.158-2.1,2.983-.433Z" transform="translate(-42.768 -99.079)"/><path class="a" d="M234.862,82.84l.691,1.4,1.546.224-1.119,1.091.265,1.539-1.383-.727-1.383.727.265-1.539-1.119-1.091,1.546-.224Z" transform="translate(-223.021 -82.84)"/></g></g></svg>