<svg xmlns="http://www.w3.org/2000/svg" width="31" height="31" viewBox="0 0 31 31"><defs><style>.a,.b{fill:#d3d3d3;}.b{opacity:0.1;}.c{opacity:0.55;}</style></defs><path class="a" d="M130.546,121.641c0-.027,0-.053,0-.08q0-.088-.008-.176c0-.029,0-.059-.006-.088,0-.058-.009-.116-.014-.174,0-.026,0-.053-.007-.079q-.012-.119-.026-.237V120.8c-.01-.082-.022-.164-.035-.245,0-.026-.008-.051-.013-.076q-.014-.085-.03-.17l-.016-.086q-.016-.083-.034-.166c-.006-.026-.011-.052-.017-.078q-.025-.11-.052-.218l0-.019c-.02-.079-.042-.157-.064-.234l-.022-.073q-.024-.081-.05-.162l-.027-.083q-.026-.078-.053-.156l-.027-.076q-.036-.1-.074-.2l-.011-.028q-.044-.111-.091-.221l-.03-.069q-.033-.076-.068-.152l-.037-.079q-.034-.073-.07-.144l-.037-.074q-.045-.089-.093-.177l-.018-.034q-.056-.1-.115-.205l-.039-.066q-.041-.07-.084-.14l-.047-.075q-.042-.066-.085-.132l-.046-.07q-.053-.079-.108-.157l-.027-.039q-.068-.095-.138-.188l-.047-.061-.1-.127-.056-.07-.1-.118-.056-.066q-.059-.069-.12-.137l-.036-.041q-.078-.086-.158-.169l-.054-.055-.112-.113-.065-.064-.11-.1-.065-.06-.131-.118-.045-.04q-.087-.076-.176-.149l-.06-.049-.125-.1-.073-.056-.121-.09-.072-.053-.142-.1-.044-.031h0a8.633,8.633,0,0,0-1.256-.707l0,0-.015-.007-.115-.05-.085-.037-.154-.063-.085-.034-.166-.063-.081-.029-.126-.044-.091-.029-.119-.038-.095-.028-.117-.034-.1-.026-.117-.031-.1-.024-.117-.027-.1-.022-.118-.024-.1-.019-.12-.021-.1-.017-.122-.018-.1-.014-.124-.015-.1-.011-.128-.012-.1-.009-.135-.009-.093-.006-.151-.006-.079,0q-.114,0-.228,0H121.9q-.115,0-.228,0l-.079,0-.151.006-.093.006-.135.009-.1.009-.128.012-.1.011-.124.015-.1.014-.122.018-.1.017-.12.021-.1.019-.118.024-.1.022-.117.027-.1.024-.117.031-.1.026-.117.034-.095.028-.119.038-.09.029-.126.044-.081.029-.166.063-.085.034-.154.063-.085.037-.115.05-.016.007,0,0a8.625,8.625,0,0,0-1.256.707h0l-.044.031-.142.1-.072.053-.121.09-.073.056-.125.1-.06.049q-.089.073-.176.149l-.045.04-.131.118-.065.06-.11.1-.065.064-.112.113-.054.055q-.08.084-.158.169l-.036.041q-.061.068-.12.137l-.056.066-.1.118-.056.07-.1.127-.047.061q-.07.093-.138.188l-.027.039q-.054.078-.107.157l-.046.07-.085.132-.047.075q-.043.069-.084.14l-.039.066q-.059.1-.115.205l-.018.034q-.047.088-.093.177l-.037.074q-.036.072-.07.144l-.037.079q-.035.075-.068.152l-.03.069q-.047.11-.091.221l-.011.028q-.038.1-.074.2l-.027.076q-.027.078-.053.156l-.027.083q-.026.08-.05.162c-.007.024-.015.048-.022.073q-.034.116-.064.234l0,.019q-.028.109-.052.218c-.006.026-.011.052-.017.078q-.018.083-.034.166l-.016.086c-.011.056-.02.113-.03.17,0,.025-.009.051-.013.076-.013.081-.025.163-.035.245v.011q-.015.118-.026.237c0,.026,0,.053-.007.079q-.008.087-.014.174,0,.044-.006.088-.005.088-.008.176c0,.027,0,.053,0,.079,0,.085,0,.169,0,.254a8.733,8.733,0,0,0,.045.884,8.644,8.644,0,0,0,8.6,7.759h0a8.644,8.644,0,0,0,8.6-7.759,8.748,8.748,0,0,0,.045-.884Q130.55,121.767,130.546,121.641Z" transform="translate(-106.407 -106.395)"/><path class="b" d="M114.344,122.778a8.75,8.75,0,0,1-.045-.884c0-.085,0-.17,0-.254,0-.027,0-.053,0-.079q0-.088.008-.176,0-.044.006-.088.006-.087.014-.174c0-.026,0-.053.007-.079q.012-.119.026-.237v-.011c.01-.082.022-.164.035-.245,0-.026.008-.051.013-.076q.014-.085.03-.17l.016-.086q.016-.083.034-.166c.006-.026.011-.052.017-.078q.025-.11.052-.218l0-.019c.02-.079.042-.157.064-.234l.022-.073q.024-.081.05-.162l.027-.083c.017-.052.035-.1.053-.156l.027-.076q.036-.1.074-.2l.011-.028q.044-.111.091-.221l.03-.069q.033-.076.068-.152l.037-.079q.034-.073.07-.144l.037-.074q.045-.089.093-.177l.018-.034q.056-.1.115-.205l.039-.066q.041-.07.084-.14l.047-.075.085-.132.046-.07q.053-.079.107-.157l.027-.039q.068-.095.138-.188l.047-.061.1-.127.056-.07.1-.118.056-.066q.059-.069.12-.137l.036-.041q.078-.086.158-.169l.054-.055.112-.113.065-.064.11-.1.065-.06.131-.118.045-.04q.087-.076.176-.149l.06-.049.125-.1.073-.056.121-.09.072-.053.142-.1.044-.031h0a8.633,8.633,0,0,1,1.256-.707l0,0,.016-.007.115-.05.085-.037.154-.063.085-.034.166-.063.081-.029.126-.044.09-.029.119-.038.095-.028.117-.034.1-.026.117-.031.1-.024.117-.027.1-.022.118-.024.1-.019.12-.021.1-.017.122-.018.1-.014.124-.015.1-.012.128-.012.1-.009.135-.009.032,0-.061,0-.151-.006-.079,0q-.114,0-.228,0h-.005q-.115,0-.228,0l-.079,0-.151.006-.093.006-.135.009-.1.009-.128.012-.1.012-.124.015-.1.014-.122.018-.1.017-.12.021-.1.019-.118.024-.1.022-.117.027-.1.024-.117.031-.1.026-.117.034-.095.028-.119.038-.09.029-.126.044-.081.029-.166.063-.085.034-.154.063-.085.037-.115.05-.016.007,0,0a8.627,8.627,0,0,0-1.256.707h0l-.044.031-.142.1-.072.053-.121.09-.073.056-.125.1-.06.049q-.089.073-.176.149l-.045.04-.131.118-.065.06-.11.1-.065.064-.112.113-.054.055q-.08.084-.158.169l-.036.041q-.061.068-.12.137l-.056.066-.1.118-.056.07-.1.127-.047.061q-.07.093-.138.188l-.027.039q-.054.078-.107.157l-.046.07-.085.132-.047.075c-.029.046-.056.093-.084.14l-.039.066q-.059.1-.115.205l-.018.034q-.047.088-.093.177l-.037.074q-.036.072-.07.144l-.037.079c-.023.05-.046.1-.068.152l-.03.069q-.047.11-.091.221l-.011.028q-.038.1-.074.2l-.027.076q-.027.078-.053.156l-.027.083q-.026.08-.05.162c-.007.024-.015.048-.022.073q-.034.116-.064.234l0,.019q-.028.109-.052.218c-.006.026-.011.052-.017.078q-.018.083-.034.166l-.016.086c-.011.056-.02.113-.03.17,0,.025-.009.051-.013.076-.013.081-.025.163-.035.245v.011q-.015.118-.026.237c0,.026,0,.053-.007.079q-.008.087-.014.174,0,.044-.006.088-.005.088-.008.176c0,.027,0,.053,0,.079,0,.085,0,.169,0,.254a8.733,8.733,0,0,0,.045.884,8.644,8.644,0,0,0,8.6,7.759h0c.175,0,.349-.006.522-.016A8.644,8.644,0,0,1,114.344,122.778Z" transform="translate(-106.398 -106.394)"/><g class="c" transform="translate(19.404 18.597)"><path class="a" d="M320.961,308.285a.49.49,0,0,1-.362-.818q.067-.073.13-.149a.489.489,0,1,1,.75.63c-.05.06-.1.12-.155.177A.488.488,0,0,1,320.961,308.285Z" transform="translate(-320.471 -307.143)"/></g><g class="c" transform="translate(17.109 9.652)"><path class="a" d="M286.218,168.121a.49.49,0,0,1-.446-.69,5.281,5.281,0,0,0-2.886-7.071.489.489,0,0,1,.358-.911,6.259,6.259,0,0,1,3.421,8.384A.49.49,0,0,1,286.218,168.121Z" transform="translate(-282.576 -159.415)"/></g><path class="a" d="M248.406,4.461a.489.489,0,0,1-.489-.489V.489a.489.489,0,0,1,.979,0V3.971A.489.489,0,0,1,248.406,4.461Z" transform="translate(-232.906)"/><path class="a" d="M248.406,442.789a.489.489,0,0,1-.489-.489v-3.482a.489.489,0,0,1,.979,0V442.3A.489.489,0,0,1,248.406,442.789Z" transform="translate(-232.906 -411.789)"/><path class="a" d="M75.565,76.055a.488.488,0,0,1-.346-.143L72.757,73.45a.489.489,0,0,1,.692-.692l2.462,2.462a.489.489,0,0,1-.346.836Z" transform="translate(-68.217 -68.218)"/><path class="a" d="M385.51,386a.488.488,0,0,1-.346-.143l-2.462-2.462a.489.489,0,0,1,.692-.692l2.462,2.462a.489.489,0,0,1-.346.836Z" transform="translate(-359.396 -359.396)"/><path class="a" d="M3.971,248.895H.489a.489.489,0,0,1,0-.979H3.971a.489.489,0,0,1,0,.979Z" transform="translate(0 -232.905)"/><path class="a" d="M442.3,248.895h-3.482a.489.489,0,0,1,0-.979H442.3a.489.489,0,1,1,0,.979Z" transform="translate(-411.789 -232.905)"/><path class="a" d="M73.1,386a.489.489,0,0,1-.346-.836l2.462-2.462a.489.489,0,1,1,.692.692l-2.462,2.462A.489.489,0,0,1,73.1,386Z" transform="translate(-68.217 -359.396)"/><path class="a" d="M383.048,76.054a.489.489,0,0,1-.346-.836l2.462-2.462a.489.489,0,0,1,.692.692l-2.462,2.462A.488.488,0,0,1,383.048,76.054Z" transform="translate(-359.396 -68.217)"/><path class="a" d="M126.187,37.208a.489.489,0,0,1-.424-.245l-1.741-3.015a.489.489,0,1,1,.848-.489l1.741,3.015a.49.49,0,0,1-.423.734Z" transform="translate(-116.451 -31.203)"/><path class="a" d="M345.351,416.813a.489.489,0,0,1-.424-.245l-1.741-3.015a.489.489,0,1,1,.848-.489l1.741,3.015a.49.49,0,0,1-.423.734Z" transform="translate(-322.346 -387.824)"/><path class="a" d="M12.3,185.626a.487.487,0,0,1-.127-.017l-3.363-.9a.49.49,0,0,1,.253-.946l3.363.9a.49.49,0,0,1-.126.962Z" transform="translate(-7.935 -172.62)"/><path class="a" d="M435.691,299.073a.486.486,0,0,1-.127-.017l-3.363-.9a.49.49,0,0,1,.253-.946l3.363.9a.49.49,0,0,1-.126.962Z" transform="translate(-405.692 -279.199)"/><path class="a" d="M33.7,345.84a.49.49,0,0,1-.245-.913l3.015-1.741a.489.489,0,0,1,.489.848l-3.015,1.741A.487.487,0,0,1,33.7,345.84Z" transform="translate(-31.203 -322.346)"/><path class="a" d="M413.308,126.677a.49.49,0,0,1-.245-.913l3.015-1.741a.489.489,0,0,1,.489.848l-3.015,1.741A.487.487,0,0,1,413.308,126.677Z" transform="translate(-387.823 -116.451)"/><path class="a" d="M184.238,436.18a.49.49,0,0,1-.473-.616l.9-3.363a.489.489,0,0,1,.946.253l-.9,3.363A.49.49,0,0,1,184.238,436.18Z" transform="translate(-172.623 -405.692)"/><path class="a" d="M297.689,12.788a.49.49,0,0,1-.473-.616l.9-3.363a.489.489,0,0,1,.946.253l-.9,3.363A.49.49,0,0,1,297.689,12.788Z" transform="translate(-279.204 -7.935)"/></svg>